<svg xmlns="http://www.w3.org/2000/svg" viewBox="0 0 24 24" fill="none">
  <path d="M18 10h-1.26A5 5 0 0 0 7 10a5 5 0 0 0-5 5 5 5 0 0 0 5 5h11a5 5 0 0 0 0-10z" stroke="#000" stroke-width="2" stroke-linecap="round" stroke-linejoin="round"/>
  <path d="M5 8a3 3 0 0 1 0-6 3 3 0 0 1 2.5 1.5" stroke="#000" stroke-width="2" stroke-linecap="round" stroke-linejoin="round"/>
  <path d="M19 6a2 2 0 0 1 0-4 2 2 0 0 1 1.5 1" stroke="#000" stroke-width="2" stroke-linecap="round" stroke-linejoin="round"/>
  <circle cx="7" cy="7" r="1.5" stroke="#000" stroke-width="1.5"/>
  <circle cx="21" cy="5" r="1" stroke="#000" stroke-width="1.5"/>
</svg>
