<?xml version="1.0" standalone="no"?><!DOCTYPE svg PUBLIC "-//W3C//DTD SVG 1.1//EN" "http://www.w3.org/Graphics/SVG/1.1/DTD/svg11.dtd"><svg t="1772454977977" class="icon" viewBox="0 0 1024 1024" version="1.1" xmlns="http://www.w3.org/2000/svg" p-id="5562" xmlns:xlink="http://www.w3.org/1999/xlink" width="200" height="200"><path d="M855.04 378.88c-25.6-25.6-56.32-40.96-92.16-46.08-35.84-56.32-92.16-87.04-153.6-87.04-30.72 0-56.32 5.12-81.92 20.48-20.48 10.24-40.96 30.72-61.44 51.2-10.24 0-20.48-5.12-30.72-5.12-51.2 0-102.4 20.48-138.24 51.2-40.96 30.72-66.56 76.8-76.8 128-56.32 20.48-92.16 76.8-92.16 138.24 0 81.92 61.44 148.48 143.36 148.48 25.6 0 51.2-5.12 71.68-20.48 30.72 15.36 61.44 20.48 92.16 20.48 30.72 0 66.56-10.24 97.28-20.48 25.6 15.36 56.32 20.48 81.92 20.48 40.96 0 81.92-15.36 117.76-46.08 30.72-30.72 46.08-66.56 51.2-107.52 30.72-5.12 56.32-25.6 76.8-46.08 20.48-25.6 35.84-61.44 35.84-97.28 0-40.96-15.36-76.8-40.96-102.4zM614.4 711.68c-20.48 0-46.08-10.24-61.44-20.48-5.12-5.12-15.36-5.12-20.48-5.12-10.24 0-20.48 5.12-25.6 10.24-20.48 10.24-46.08 15.36-71.68 15.36-25.6 0-51.2-5.12-76.8-20.48-5.12-5.12-10.24-5.12-15.36-5.12h-10.24c-5.12 0-10.24 5.12-15.36 5.12-15.36 10.24-30.72 15.36-46.08 15.36-40.96 0-76.8-35.84-76.8-76.8s35.84-76.8 76.8-76.8c20.48 0 40.96 10.24 56.32 25.6 5.12 5.12 15.36 10.24 25.6 10.24s15.36-5.12 20.48-10.24c5.12-5.12 10.24-15.36 10.24-25.6s-5.12-20.48-10.24-25.6c-20.48-25.6-51.2-40.96-81.92-46.08 25.6-61.44 81.92-97.28 143.36-97.28h20.48c10.24 0 15.36 5.12 25.6 5.12h5.12c25.6 10.24 46.08 25.6 61.44 40.96-5.12 0-10.24 5.12-15.36 10.24l-5.12 5.12-20.48 15.36-5.12 5.12c-5.12 5.12-10.24 10.24-10.24 20.48s0 20.48 10.24 25.6c5.12 10.24 15.36 10.24 25.6 10.24s15.36-5.12 20.48-10.24c20.48-15.36 40.96-25.6 66.56-25.6 46.08 0 87.04 35.84 97.28 81.92v46.08c0 56.32-46.08 97.28-97.28 97.28z m168.96-148.48c-10.24-35.84-25.6-71.68-51.2-97.28-30.72-25.6-66.56-40.96-102.4-46.08-20.48-35.84-56.32-66.56-92.16-87.04 20.48-20.48 51.2-30.72 76.8-30.72 30.72 0 66.56 15.36 87.04 40.96-15.36 10.24-25.6 15.36-35.84 25.6-10.24 10.24-15.36 30.72-5.12 46.08 5.12 5.12 15.36 10.24 20.48 10.24 5.12 0 15.36-5.12 20.48-5.12 15.36-15.36 35.84-20.48 51.2-20.48 46.08 0 81.92 40.96 81.92 87.04 0 30.72-20.48 61.44-51.2 76.8z" p-id="5563"></path></svg>