<?xml version="1.0" standalone="no"?><!DOCTYPE svg PUBLIC "-//W3C//DTD SVG 1.1//EN" "http://www.w3.org/Graphics/SVG/1.1/DTD/svg11.dtd"><svg t="1772454842372" class="icon" viewBox="0 0 1024 1024" version="1.1" xmlns="http://www.w3.org/2000/svg" p-id="4577" xmlns:xlink="http://www.w3.org/1999/xlink" width="200" height="200"><path d="M512 1018.311111C232.106667 1018.311111 5.688889 791.893333 5.688889 512S232.106667 5.688889 512 5.688889 1018.311111 232.106667 1018.311111 512 791.893333 1018.311111 512 1018.311111z m0-79.644444c235.52 0 426.666667-191.146667 426.666667-426.666667S747.52 85.333333 512 85.333333 85.333333 276.48 85.333333 512 276.48 938.666667 512 938.666667z m-28.444444-577.991111v237.795555c0 37.546667-12.515556 68.266667-36.408889 89.884445-23.893333 21.617778-56.888889 32.995556-96.711111 32.995555-40.96 0-72.817778-11.377778-96.711112-32.995555-23.893333-21.617778-36.408889-52.337778-36.408888-91.022223V360.675556h61.44v237.795555c0 23.893333 5.688889 42.097778 18.204444 54.613333 12.515556 12.515556 29.582222 19.342222 53.475556 19.342223 47.786667 0 71.68-25.031111 71.68-75.093334V360.675556h61.44z m191.146666 278.755555l89.884445-278.755555h68.266666L705.422222 716.8h-60.302222L517.688889 360.675556h68.266667l88.746666 278.755555z" fill="#000000" p-id="4578"></path></svg>