<svg width="32" height="32" viewBox="0 0 32 32" xmlns="http://www.w3.org/2000/svg">
  <!-- Sun -->
  <circle cx="16" cy="12" r="5" fill="url(#sunGradient)"/>
  <!-- Sun rays -->
  <g stroke="url(#rayGradient)" stroke-width="2" stroke-linecap="round">
    <line x1="16" y1="3" x2="16" y2="7"/>
    <line x1="16" y1="25" x2="16" y2="21"/>
    <line x1="3" y1="12" x2="7" y2="12"/>
    <line x1="25" y1="12" x2="29" y2="12"/>
    <line x1="7" y1="7" x2="9" y2="9"/>
    <line x1="23" y1="7" x2="25" y2="9"/>
    <line x1="7" y1="17" x2="9" y2="19"/>
    <line x1="23" y1="17" x2="25" y2="19"/>
  </g>

  <!-- Cloud -->
  <path d="M8 18c-1.1 0-2 .9-2 2 0 1.1.9 2 2 2h10c1.1 0 2-.9 2-2s-.9-2-2-2c0-.6-.4-1.1-.9-1.4C16.6 16.1 15.8 16 15 16c-1.7 0-3.3.8-4.2 2.1-.3.4-.8.7-1.3.7H8z" fill="url(#cloudGradient)"/>

  <!-- Gradients -->
  <defs>
    <radialGradient id="sunGradient" cx="50%" cy="30%" r="70%">
      <stop offset="0%" stop-color="#FFD700"/>
      <stop offset="70%" stop-color="#FFA500"/>
      <stop offset="100%" stop-color="#FF8C00"/>
    </radialGradient>
    <linearGradient id="rayGradient" x1="0%" y1="0%" x2="100%" y2="100%">
      <stop offset="0%" stop-color="#FFE55C"/>
      <stop offset="100%" stop-color="#FFA500"/>
    </linearGradient>
    <linearGradient id="cloudGradient" x1="0%" y1="0%" x2="100%" y2="100%">
      <stop offset="0%" stop-color="#E3F2FD"/>
      <stop offset="50%" stop-color="#BBDEFB"/>
      <stop offset="100%" stop-color="#90CAF9"/>
    </linearGradient>
  </defs>
</svg>
